<?xml version="1.0" encoding="UTF-8"?>
<svg width="28px" height="28px" viewBox="0 0 28 28" version="1.1" xmlns="http://www.w3.org/2000/svg" xmlns:xlink="http://www.w3.org/1999/xlink">
    <!-- Generator: Sketch 47.1 (45422) - http://www.bohemiancoding.com/sketch -->
    <title>空气污染icon</title>
    <desc>Created with Sketch.</desc>
    <defs></defs>
    <g id="Page-1" stroke="none" stroke-width="1" fill="none" fill-rule="evenodd">
        <g id="主页-无限行指数2" transform="translate(-221.000000, -1237.000000)">
            <g id="指数" transform="translate(0.000000, 1224.000000)">
                <g id="空气污染扩散条件" transform="translate(195.000000, 13.000000)">
                    <g id="空气污染icon" transform="translate(26.000000, 0.000000)">
                        <rect id="Rectangle-9" fill="#D8D8D8" opacity="0.0451200181" x="0" y="0" width="28" height="28"></rect>
                        <path d="M21.0731707,15 L3.92682927,15 C3.41660976,15 3,14.5505 3,14 C3,13.45 3.41660976,13 3.92682927,13 L21.0731707,13 C21.5829268,13 22,13.45 22,14 C22,14.5505 21.5829268,15 21.0731707,15" id="Fill-1" fill="#B28A90"></path>
                        <path d="M15.037037,11 L3.96296296,11 C3.43285185,11 3,10.5505 3,10 C3,9.45 3.43285185,9 3.96296296,9 L15.037037,9 C15.5666667,9 16,9.45 16,10 C16,10.5505 15.5666667,11 15.037037,11" id="Fill-3" fill="#B28A90"></path>
                        <path d="M15.00025,4.99991429 L15.00025,6.7142 C15.82825,6.7142 16.50025,7.2902 16.50025,7.99991429 C16.50025,8.71005714 15.82825,9.28562857 15.00025,9.28562857 L15.00025,10.9999143 C16.93275,10.9999143 18.50025,9.65677143 18.50025,7.99991429 C18.50025,6.34305714 16.93275,4.99991429 15.00025,4.99991429" id="Fill-5" fill="#B28A90"></path>
                        <path d="M16.0967742,18 L3.90322581,18 C3.406,18 3,18.45 3,19 C3,19.5505 3.406,20 3.90322581,20 L16.0967742,20 C16.5935484,20 17,19.5505 17,19 C17,18.45 16.5935484,18 16.0967742,18" id="Fill-11" fill="#B28A90"></path>
                        <path d="M16,24 L16,22.2857143 C16.9462857,22.2857143 17.7142857,21.7101429 17.7142857,21 C17.7142857,20.2902857 16.9462857,19.7142857 16,19.7142857 L16,18 C18.2085714,18 20,19.3431429 20,21 C20,22.6568571 18.2085714,24 16,24" id="Fill-13" fill="#B28A90"></path>
                        <path d="M17,23 C17,22.448 16.552,22 16,22 C15.4475,22 15,22.448 15,23 C15,23.552 15.4475,24 16,24 C16.552,24 17,23.552 17,23" id="Fill-15" fill="#B28A90"></path>
                        <path d="M21.0002857,8.99991429 L21.0002857,10.7142 C21.9465714,10.7142 22.7145714,11.2902 22.7145714,11.9999143 C22.7145714,12.7100571 21.9465714,13.2856286 21.0002857,13.2856286 L21.0002857,14.9999143 C23.2088571,14.9999143 25.0002857,13.6567714 25.0002857,11.9999143 C25.0002857,10.3430571 23.2088571,8.99991429 21.0002857,8.99991429" id="Fill-17" fill="#B28A90"></path>
                        <path d="M22,10 C22,10.552 21.552,11 21,11 C20.4475,11 20,10.552 20,10 C20,9.448 20.4475,9 21,9 C21.552,9 22,9.448 22,10" id="Fill-20" fill="#B28A90"></path>
                        <path d="M16,6 C16,6.552 15.552,7 15,7 C14.4475,7 14,6.552 14,6 C14,5.448 14.4475,5 15,5 C15.552,5 16,5.448 16,6" id="Fill-20-Copy" fill="#B28A90"></path>
                    </g>
                </g>
            </g>
        </g>
    </g>
</svg>